<?xml version="1.0" standalone="no"?><!DOCTYPE svg PUBLIC "-//W3C//DTD SVG 1.1//EN" "http://www.w3.org/Graphics/SVG/1.1/DTD/svg11.dtd"><svg t="1653817638865" class="icon" viewBox="0 0 1024 1024" version="1.1" xmlns="http://www.w3.org/2000/svg" p-id="8269" xmlns:xlink="http://www.w3.org/1999/xlink" width="200" height="200"><defs><style type="text/css"></style></defs><path d="M109.679493 891.228067l800.560068 0c28.764114 0 49.919946-28.279067 49.919946-57.07081L960.159508 338.752214c0-28.764114-21.155832-54.242392-49.919946-54.242392L385.10645 284.509822l377.151779-124.684744c7.218402-2.396583 11.123338-9.682523 8.713452-16.914228-2.409886-7.217379-10.16757-11.904121-17.439184-9.507538L297.938158 284.509822 109.679493 284.509822c-28.777417 0-45.840024 25.478278-45.840024 54.242392l0 495.406067C63.839469 862.949001 80.902076 891.228067 109.679493 891.228067zM946.369434 825.270866c0 13.600763-11.015891 24.616654-24.603351 24.616654L116.021945 849.88752c-13.58746 0-24.603351-11.015891-24.603351-24.616654L91.418594 336.664669c0-13.574157 11.015891-24.590048 24.603351-24.590048l805.745161 0c13.58746 0 24.603351 11.015891 24.603351 24.590048L946.370457 825.270866zM891.211183 587.858712 891.211183 394.826324 518.893502 394.826324l0 193.032388L891.211183 587.858712zM546.472628 422.391123l317.15943 0 0 137.907906-135.362944 0 40.668235-57.567113c4.564969-6.099928 3.340071-16.415878-2.747577-20.980847-6.114255-4.564969-14.731516-0.835018-19.310811 5.251607l-53.098335 73.296353L546.472628 560.299029 546.472628 422.391123zM133.783471 408.602072c0-7.608282 6.166443-13.775748 13.790074-13.775748l305.160141 0c7.621585 0 13.790074 6.167466 13.790074 13.775748 0 7.622608-6.167466 13.790074-13.790074 13.790074l-305.160141 0C139.950937 422.391123 133.783471 416.223656 133.783471 408.602072zM133.783471 491.339448c0-7.621585 6.166443-13.790074 13.790074-13.790074l305.160141 0c7.621585 0 13.790074 6.167466 13.790074 13.790074 0 7.634888-6.167466 13.803377-13.790074 13.803377l-305.160141 0C139.950937 505.141802 133.783471 498.974335 133.783471 491.339448zM133.783471 574.068637c0-7.614421 6.166443-13.769608 13.790074-13.769608l305.160141 0c7.621585 0 13.790074 6.155187 13.790074 13.769608 0 7.621585-6.167466 13.790074-13.790074 13.790074l-305.160141 0C139.950937 587.858712 133.783471 581.691245 133.783471 574.068637zM133.783471 643.015939c0-7.594979 6.166443-13.789051 13.790074-13.789051l305.160141 0c7.621585 0 13.790074 6.194072 13.790074 13.789051 0 7.622608-6.167466 13.790074-13.790074 13.790074l-305.160141 0C139.950937 656.806014 133.783471 650.63957 133.783471 643.015939zM133.783471 725.780945c0-7.649214 6.166443-13.790074 13.790074-13.790074l305.160141 0c7.621585 0 13.790074 6.14086 13.790074 13.790074 0 7.594979-6.167466 13.790074-13.790074 13.790074l-305.160141 0C139.950937 739.571019 133.783471 733.375923 133.783471 725.780945zM796.04473 629.900224c-28.64234 0-51.939953 23.269983-51.939953 51.92665 0 28.630061 23.297612 51.925626 51.939953 51.925626 28.630061 0 51.925626-23.296589 51.925626-51.925626C847.970356 653.170207 824.67479 629.900224 796.04473 629.900224zM796.04473 706.173374c-13.425777 0-24.360827-10.93505-24.360827-24.346501 0-13.440104 10.93505-24.37413 24.360827-24.37413s24.347524 10.93505 24.347524 24.37413C820.392254 695.239348 809.470507 706.173374 796.04473 706.173374zM605.32092 629.900224c-28.64234 0-51.939953 23.269983-51.939953 51.92665 0 28.630061 23.297612 51.925626 51.939953 51.925626 28.630061 0 51.925626-23.296589 51.925626-51.925626C657.246547 653.170207 633.950981 629.900224 605.32092 629.900224zM605.32092 706.173374c-13.425777 0-24.360827-10.93505-24.360827-24.346501 0-13.440104 10.93505-24.37413 24.360827-24.37413s24.347524 10.93505 24.347524 24.37413C629.668445 695.239348 618.746698 706.173374 605.32092 706.173374z" p-id="8270"></path></svg>