<?xml version="1.0" standalone="no"?><!DOCTYPE svg PUBLIC "-//W3C//DTD SVG 1.1//EN" "http://www.w3.org/Graphics/SVG/1.1/DTD/svg11.dtd"><svg t="1653818142225" class="icon" viewBox="0 0 1024 1024" version="1.1" xmlns="http://www.w3.org/2000/svg" p-id="3744" xmlns:xlink="http://www.w3.org/1999/xlink" width="200" height="200"><defs><style type="text/css"></style></defs><path d="M729.2589302 164.38571167L729.2589302 566.10426297l-6.32427167 0c-3.99281178-0.03530457-6.5354202 0.1113452-10.22950094 0.73324889-5.7464987 0.96748117-11.97096705 2.85356027-18.65507382 5.94067386-19.27086711 8.90286361-38.87169623 26.00725181-57.86487926 53.98205482-20.83241567 30.68510815-39.40737527 72.44227455-54.86670603 126.68911368-3.17605399 11.14402525-6.16336429 20.25803737-9.87034476 29.36118655-5.02954424 12.34913337-10.82560513 23.09055068-17.83220564 32.16993716-19.60965525 25.40978976-47.3726308 35.30864977-79.73063272 23.31459894-31.48489259-11.67291496-55.32770231-39.44132198-64.95430972-79.36061359-10.08488797-41.82098619-4.61064187-95.51517293 17.97002926-160.6134167l-175.42640212 0a86.37264556 86.37264556 0 0 1-68.31231806-33.43818616c-16.3724972-21.11417334-22.03888166-48.6150803-15.35952743-74.42272549L228.56332072 253.18351004c13.52979988-52.27928796 60.72387098-88.79440371 114.75413014-88.79779837L729.2589302 164.38571167z m43.45178605 0L799.08323463 164.38571167C832.50987893 164.38571167 859.61428833 191.46839518 859.61428833 224.88553439L859.61428833 505.60444023a60.48420723 60.48420723 0 0 1-17.73511804 42.78643058 60.54666918 60.54666918 0 0 1-42.79593565 17.71339216L772.71071625 566.10426297 772.71071625 164.38571167z" fill="#ffffff" p-id="3745"></path></svg>